#!OML:ASF X:\für Bonn\!DataBase\2005_08_12_Daniel\c3d\Daniel.ASF
:FULLY-SPECIFIED
:DEGREES
323
root 21.89 1.29221 -0.0451199 -1274.68 263.73 75.7714
lowerback 33.3886 -1.77706 -2.98338
upperback 7.58042 -4.34404 -1.09189
thorax -8.56355 -2.47577 2.0901
lowerneck -3.85608 3.51419 -7.48383
upperneck 5.19448 5.07577 0.184388
head 2.11287 2.35023 1.48384
rclavicle 1.29608e-013 -1.56891e-013
rhumerus -398.861 6.01177 273.005
rradius 48.4625
rwrist 12.0773
rhand -25.5747 737.694
rfingers 7.12502
rthumb 0.956553 707.716
lclavicle 1.29608e-013 -1.56891e-013
lhumerus -394.934 -6.65397 -270.628
lradius 86.8717
lwrist 2.14782
lhand -23.3735 -733.627
lfingers 7.12502
lthumb 3.08237 16.3309
rfemur -2.47603 -13.3978 3.00685
rtibia 75.0559
rfoot 376.465 7.88409
rtoes 6.36387
lfemur -21.2498 -8.67344 -17.4073
ltibia 92.4579
lfoot 23.5496 2.15082
ltoes 3.18921
324
root 21.883 1.29271 -0.041116 -1274.61 263.687 75.9015
lowerback 33.1992 -1.81012 -2.98366
upperback 7.48629 -4.36613 -1.07572
thorax -8.592 -2.47671 2.11092
lowerneck -4.10747 3.44992 -7.49991
upperneck 5.17062 5.00915 0.275627
head 2.15116 2.3205 1.52181
rclavicle -6.44062e-014 -2.4376e-014
rhumerus -398.842 5.62014 273.277
rradius 47.1448
rwrist 12.982
rhand -25.8983 737.233
rfingers 7.12502
rthumb 0.643981 707.254
lclavicle -6.44062e-014 -2.4376e-014
lhumerus -395.203 -6.05083 -270.534
lradius 85.2215
lwrist 1.65628
lhand -23.5105 -733.509
lfingers 7.12502
lthumb 2.9501 16.4506
rfemur -2.44784 -13.2422 3.22541
rtibia 74.6192
rfoot 377.667 6.54128
rtoes 6.69056
lfemur -20.2993 -9.08192 -17.7032
ltibia 90.504
lfoot 23.2993 2.19812
ltoes 2.86721
325
root 21.8746 1.29276 -0.0366079 -1274.64 263.627 76.1304
lowerback 33.0241 -1.85137 -2.99666
upperback 7.39516 -4.40463 -1.05522
thorax -8.62033 -2.48611 2.14932
lowerneck -4.38251 3.39322 -7.55969
upperneck 5.13918 4.95586 0.384822
head 2.18966 2.29712 1.57402
rclavicle -6.36111e-015 4.33102e-014
rhumerus -398.818 5.28195 273.539
rradius 45.7973
rwrist 13.884
rhand -26.1514 736.74
rfingers 7.12502
rthumb 0.399556 706.76
lclavicle -6.36111e-015 4.33102e-014
lhumerus -395.448 -5.41027 -270.448
lradius 83.5512
lwrist 1.09527
lhand -23.6867 -733.297
lfingers 7.12502
lthumb 2.77998 16.6648
rfemur -2.38732 -13.0922 3.42462
rtibia 74.1626
rfoot 378.841 5.15669
rtoes 7.01331
lfemur -19.2965 -9.51612 -18.0314
ltibia 88.4928
lfoot 23.0376 2.25545
ltoes 2.4949
326
root 21.8655 1.29283 -0.0333705 -1274.53 263.572 76.2326
lowerback 32.8396 -1.8915 -3.00162
upperback 7.29148 -4.43818 -1.04167
thorax -8.65968 -2.49188 2.17441
lowerneck -4.65056 3.33015 -7.5598
upperneck 5.15341 4.89252 0.470529
head 2.24436 2.26813 1.60881
rclavicle -5.40694e-014 1.25458e-013
rhumerus -398.817 4.89287 273.804
rradius 44.4358
rwrist 14.8428
rhand -26.3028 736.385
rfingers 7.12502
rthumb 0.253301 706.406
lclavicle -5.40694e-014 1.25458e-013
lhumerus -395.704 -4.82149 -270.407
lradius 81.8792
lwrist 0.581805
lhand -23.8132 -732.989
lfingers 7.12502
lthumb 2.65773 16.9737
rfemur -2.33262 -12.9381 3.66145
rtibia 73.6729
rfoot 380.078 3.6482
rtoes 7.4539
lfemur -18.2636 -9.91986 -18.3184
ltibia 86.4051
lfoot 22.8176 2.29019
ltoes 2.03126
327
root 21.8552 1.29304 -0.0291411 -1274.36 263.511 76.2584
lowerback 32.6507 -1.93588 -2.98237
upperback 7.20196 -4.46924 -1.02505
thorax -8.68292 -2.49815 2.18815
lowerneck -4.94407 3.26628 -7.54788
upperneck 5.17037 4.83097 0.51446
head 2.30592 2.23854 1.62866
rclavicle 1.19271e-014 -5.09883e-014
rhumerus -398.836 4.50499 274.077
rradius 43.0939
rwrist 15.8269
rhand -26.4024 736.029
rfingers 7.12502
rthumb 0.157101 706.049
lclavicle 1.19271e-014 -5.09883e-014
lhumerus -395.921 -4.24961 -270.393
lradius 80.1997
lwrist 0.0522813
lhand -23.8866 -732.544
lfingers 7.12502
lthumb 2.58687 17.42
rfemur -2.23459 -12.766 3.90094
rtibia 73.1517
rfoot 381.303 2.00328
rtoes 8.22917
lfemur -17.1636 -10.3446 -18.6157
ltibia 84.2526
lfoot 22.5684 2.33403
ltoes 1.56911
328
root 21.8467 1.29448 -0.025937 -1274.32 263.428 76.427
lowerback 32.1655 -1.99499 -2.97956
upperback 7.56097 -4.50337 -1.08557
thorax -8.83325 -2.50443 2.28053
lowerneck -5.22358 3.20556 -7.5837
upperneck 5.15416 4.77432 0.554446
head 2.35307 2.21095 1.65445
rclavicle 8.74653e-015 -3.1731e-014
rhumerus -398.82 4.07281 274.376
rradius 41.744
rwrist 16.8159
rhand -26.3454 735.804
rfingers 7.12502
rthumb 0.21219 705.824
lclavicle 8.74653e-015 -3.1731e-014
lhumerus -396.116 -3.68906 -270.368
lradius 78.5282
lwrist -0.474433
lhand -23.9441 -731.966
lfingers 7.12502
lthumb 2.53133 17.9987
rfemur -2.10599 -12.6237 4.11557
rtibia 72.585
rfoot 382.521 0.2647
rtoes 9.02912
lfemur -16.0353 -10.7825 -18.9336
ltibia 82.0621
lfoot 22.3447 2.42213
ltoes 1.30998
